<?xml version="1.0" standalone="no"?>
<!DOCTYPE svg PUBLIC "-//W3C//DTD SVG 20010904//EN"
 "http://www.w3.org/TR/2001/REC-SVG-20010904/DTD/svg10.dtd">
<svg version="1.0" xmlns="http://www.w3.org/2000/svg"
 width="317.000000pt" height="317.000000pt" viewBox="0 0 317.000000 317.000000"
 preserveAspectRatio="xMidYMid meet">
<metadata>
Created by potrace 1.11, written by Peter Selinger 2001-2013
</metadata>
<g transform="translate(0.000000,317.000000) scale(0.100000,-0.100000)"
fill="#000000" stroke="none">
<path d="M1607 2533 c-2 -5 -3 -375 -3 -823 l1 -815 110 0 109 0 -1 55 c-1 41
1 51 8 38 6 -10 15 -18 21 -18 6 0 106 50 222 111 116 62 249 132 296 157 47
24 117 61 155 82 39 20 120 64 180 96 61 32 155 82 210 111 55 30 112 59 128
64 21 9 27 18 28 42 1 18 3 48 5 67 9 91 7 102 -12 114 -10 6 -55 31 -99 55
-338 184 -747 407 -780 425 -22 12 -113 62 -203 111 -89 49 -162 93 -161 99 4
34 -1 36 -105 36 -58 0 -106 -3 -109 -7z m258 -323 c6 -4 51 -29 100 -55 50
-26 113 -60 140 -75 28 -15 169 -92 315 -170 146 -78 284 -153 308 -167 l43
-24 -53 -28 c-29 -15 -125 -65 -213 -111 -88 -46 -188 -98 -222 -116 -35 -19
-143 -75 -240 -125 -98 -51 -182 -96 -187 -100 -32 -29 -33 -9 -33 490 0 532
-2 512 42 481z"/>
<path d="M148 2454 c-3 -5 -6 -178 -8 -384 -6 -1160 -7 -1082 11 -1093 15 -10
16 -13 2 -33 -8 -13 -12 -28 -8 -33 8 -14 1361 -9 1374 5 5 5 12 60 16 122 l7
112 -29 1 c-37 0 -494 -2 -853 -5 -157 -1 -290 -1 -296 1 -5 2 -9 18 -8 36 8
98 14 1246 7 1250 -4 2 -33 8 -63 11 -30 3 -76 9 -101 12 -26 4 -49 2 -51 -2z"/>
</g>
</svg>
